<?xml version="1.0" encoding="UTF-8"?>
<svg xmlns="http://www.w3.org/2000/svg" version="1.1" viewBox="0 0 235 235">
  <defs>
    <style>
      .cls-1 {
      fill: #fff;
      }

      .cls-2 {
      fill: #ff5d4c;
      }
    </style>
  </defs>
  <g>
    <g id="Layer_1">
      <circle class="cls-2" cx="117.7" cy="117.3" r="115.1"/>
      <g>
        <rect class="cls-1" x="66.8" y="124.7" width="8.6" height="33.3"/>
        <path class="cls-1" d="M52.7,141.4v-23.5h-8.6v23.5c0,9.2,7.5,16.6,16.6,16.6h3.5v-8.6h-3.5c-4.4,0-8-3.6-8-8Z"/>
        <path class="cls-1" d="M191.7,106h16.7v-6.9h0c-.4-8.8-7.7-15.8-16.6-15.8s-15,6-16.4,13.8c-1.4-7.8-8.2-13.8-16.4-13.8s-15,5.9-16.4,13.7c-1.4-7.8-8.2-13.7-16.4-13.7s-14.7,5.7-16.3,13.2v-13.2h-8.6v16.7c0,4.4-3.6,8-8,8s-8-3.6-8-8v-16.7h-8.6v12c-2-6.9-8.4-12-16-12s-16.6,7.5-16.6,16.6.8,5.6,2.1,8h-2.6c-4.4,0-8-3.6-8-8v-23.4h-8.6v23.4c0,9.1,7.3,16.5,16.3,16.6,1.5,0,5.1-.3,8.4-2.7,1.4-1,3.7-4.2,4.5-5.3.2-.2.2-.6,0-.8-.4-.6-.9-1.6-.7-2.7h0c.3-2.4-1.3-4.7-3.7-5.2-.1,0-.2,0-.3,0-1.1-.3-1.7-1.5-1.3-2.6.3-.9,1.2-1.5,2.1-1.4,1.3,0,1.7,1.3,1.8,2.3,0,.9,1,2.3,2,3,.3.2.8,0,.9-.4.3-2.3-.3-4.7-1.8-6.6-.2-.2-.4-.5-.6-.8-.4-.9,0-2,.8-2.6,1-.6,2.3-.2,2.8.8.3.5.3,1,.2,1.5h0c-.7,2.2-.5,4.5.5,6.5.2.4.8.4,1,0,1.3-2.1,1.7-4.8,1.5-7.4h0c0-.3,0-.7,0-1.1.3-1,1.5-1.6,2.5-1.3,1.1.3,1.7,1.5,1.3,2.5-.1.4-.3.7-.6.9h0c-1.8,1.8-2.9,4.4-3,7,0,.4.5.7.8.5,2-1.1,3.5-2.9,4.1-5.2h0c.2-.6.6-1.1,1.3-1.4.9-.3,1.8,0,2.3.8.7,1,.4,2.4-.7,3-.1,0-.3.1-.4.2h0c-2.5.7-4.5,2.4-5.5,4.6-.2.4,0,.8.5.8,1.4,0,2.7-.6,3.6-1.7h0c.5-.7,1.5-1,2.4-.6.9.4,1.4,1.3,1.2,2.3-.2,1.2-1.4,1.9-2.6,1.6,0,0-.1,0-.2,0h0c-2.3-1-5,0-6.1,2.2h0c-.4.7-1,1.3-1.7,1.7-.2,0-.4.2-.6.2-.2,0-.4.2-.5.4-.3.8-.9,2.3-1.8,4.1-.5.9-.9,1.7-1.4,2.4-.1.2-.3.4-.4.6h4.8c8.1,0,14.8-5.8,16.3-13.4,1.5,7.6,8.3,13.4,16.3,13.4s14.7-5.7,16.3-13.2v13.2h8.6v-16.6c0-4.4,3.6-8,8-8s8,3.6,8,8v16.6h8.6v-12.4c1.9,7.1,8.4,12.4,16.1,12.4h1.1l-4.1,8.1h-6.1c-5.2,0-9.5,4.2-9.5,9.5v23.8h8.6v-23.8c0-.5.4-.9.9-.9h1.7,0s8.9,0,8.9,0c-1.3,2.4-2.1,5.2-2.1,8,0,4.4,1.7,8.6,4.9,11.8,3.1,3.1,7.3,4.9,11.8,4.9s8.6-1.7,11.8-4.9c3.1-3.1,4.9-7.3,4.9-11.7h0v-23.6h-8.6v9c-2.5-1.4-5.3-2.1-8.2-2.1-4.2,0-8.4,1.7-11.6,4.9,0,0,0,.1-.1.1l10.6-22.2h0c.7-1.5,1.3-3,1.6-4.7,1.4,7.8,8.2,13.8,16.4,13.8v-8.6c-4.4,0-8-3.6-8-8s3.6-8,8-8,7.6,3.1,8,7.2h-8.1v6.9ZM169.5,135.7c1.6-1.6,3.6-2.3,5.7-2.3s4.1.8,5.7,2.3c1.5,1.5,2.4,3.5,2.4,5.7s-.8,4.2-2.4,5.7c-1.5,1.5-3.5,2.4-5.7,2.4s-4.2-.8-5.7-2.4c-1.5-1.5-2.4-3.5-2.4-5.7s.8-4.2,2.4-5.7ZM159,108c-4.4,0-8-3.6-8-8s3.6-8,8-8,8,3.6,8,8-3.6,8-8,8Z"/>
        <path class="cls-1" d="M132.8,129.6h0c-3.1-3.1-7.3-4.9-11.8-4.9s-8.6,1.7-11.8,4.9-4.9,7.3-4.9,11.8,0,0,0,0c0,2.1-.8,4.2-2.4,5.7-1.5,1.5-3.4,2.3-5.4,2.3h-4.5s8.7-14.7,8.7-14.7c1.3-2,1.4-4.5.2-6.6-1.1-2.1-3.3-3.4-5.7-3.4h-17.5v8.6h13.7l-13.7,24.7h18.5s0,0,0,0c0,0,.1,0,.2,0h0s0,0,0,0c4.2,0,8.3-1.7,11.5-4.8.2-.2.4-.4.6-.6.2.2.4.4.6.6,3.2,3.2,7.4,4.8,11.6,4.9,0,0,.1,0,.2,0,2.8,0,5.5-.7,8-2.1v2.1h8.6v-17h0c0-4.2-1.7-8.3-4.9-11.5ZM126.7,147.1c-1.6,1.6-3.7,2.4-5.9,2.3-2,0-4-.8-5.5-2.3-1.5-1.5-2.3-3.5-2.4-5.6,0,0,0,0,0,0h0s0,0,0,0c0-2.1.8-4.2,2.4-5.7,1.5-1.5,3.5-2.4,5.7-2.4s4.2.8,5.7,2.4c1.5,1.5,2.3,3.5,2.3,5.4,0,2.1-.7,4.3-2.3,5.9Z"/>
      </g>
    </g>
  </g>
</svg>